# xmcd CD database file
#
# Track frame offsets:
#	150
#	18131
#	27579
#	33817
#	55968
#	71720
#	85262
#	93564
#	107882
#	112966
#	123400
#	130108
#	139578
#	148762
#	161496
#	168603
#	175222
#	194239
#	199667
#	209664
#	238174
#	256854
#	262777
#	274331
#	281245
#	291130
#	300926
#	309200
#	321997
#
# Disc length: 4496 seconds
#
# Revision: 0
# Processed by: cddbd v1.5.2PL0 Copyright (c) Steve Scherf et al.
# Submitted via: CDex 1.70beta2
#
DISCID=b3118e1d
DTITLE=George Gershwin - The Essential Gold Collection
DYEAR=1900
DGENRE=Jazz
TTITLE0=An American in Paris (Blues theme)
TTITLE1=But not for me
TTITLE2=Clap yo' hands
TTITLE3=Concerto in F (1st movement theme)
TTITLE4=Embraceable you
TTITLE5=A foggy day
TTITLE6=I got rhythm
TTITLE7=I loves you,Porgy
TTITLE8=I'll built a stairway to paradise
TTITLE9=It ain't necessarily so
TTITLE10=Fascinating rhythm
TTITLE11=Let's call the whole thing off
TTITLE12=Love walked in
TTITLE13=Nice work if you can get it
TTITLE14=Oh, lady, be good
TTITLE15=Prelude No. 1
TTITLE16=Prelude No. 2
TTITLE17=Prelude No. 3
TTITLE18=The man I love
TTITLE19=Rhapsody in Blue (opening themes)
TTITLE20=Rhapsody in Blue (slow theme)
TTITLE21='S wonderful
TTITLE22=Someone to watch over me
TTITLE23=Strike up the band
TTITLE24=Swanee
TTITLE25=Summertime
TTITLE26=Sweet and low down
TTITLE27=They all laughed
TTITLE28=They can't take that away from me
EXTD=
EXTT0=
EXTT1=
EXTT2=
EXTT3=
EXTT4=
EXTT5=
EXTT6=
EXTT7=
EXTT8=
EXTT9=
EXTT10=
EXTT11=
EXTT12=
EXTT13=
EXTT14=
EXTT15=
EXTT16=
EXTT17=
EXTT18=
EXTT19=
EXTT20=
EXTT21=
EXTT22=
EXTT23=
EXTT24=
EXTT25=
EXTT26=
EXTT27=
EXTT28=
PLAYORDER=
